<svg width="163" height="163" viewBox="0 0 163 163" fill="none" xmlns="http://www.w3.org/2000/svg">
<path d="M73.0933 64.5901C73.0933 68.4137 76.1982 71.5132 80.0283 71.5132H82.9717C86.8018 71.5132 89.9067 68.4137 89.9067 64.5901V60.9231C89.9067 57.0996 93.0116 54 96.8417 54H101.245C105.075 54 108.18 57.0996 108.18 60.9231V64.5901C108.18 68.4137 111.285 71.5132 115.115 71.5132H118.059C121.889 71.5132 124.994 68.4137 124.994 64.5901V60.9231C124.994 57.0996 128.099 54 131.929 54H136.334C140.164 54 143.269 57.0996 143.269 60.9231V65.3203C143.269 69.1438 140.164 72.2434 136.334 72.2434H132.66C128.83 72.2434 125.725 75.343 125.725 79.1665V82.8335C125.725 86.657 128.83 89.7566 132.66 89.7566H137.065C140.895 89.7566 144 92.8562 144 96.6797V101.077C144 104.9 140.895 108 137.065 108H114.385C110.555 108 107.45 104.9 107.45 101.077V79.1665C107.45 75.343 104.345 72.2434 100.515 72.2434H97.5718C93.7417 72.2434 90.6368 75.343 90.6368 79.1665V101.077C90.6368 104.9 87.5319 108 83.7017 108H79.2969C75.4668 108 72.3619 104.9 72.3619 101.077V79.1665C72.3619 75.343 69.2569 72.2434 65.4268 72.2434H62.4849C58.6547 72.2434 55.5498 75.343 55.5498 79.1665V101.077C55.5498 104.9 52.4449 108 48.6148 108H25.935C22.1049 108 19 104.9 19 101.077V78.4363C19 74.6128 22.1049 71.5132 25.935 71.5132H47.8833C51.7135 71.5132 54.8184 68.4137 54.8184 64.5901V60.9231C54.8184 57.0996 57.9233 54 61.7534 54H66.1583C69.9884 54 73.0933 57.0996 73.0933 60.9231V64.5901Z" fill="white"/>
</svg>
